<?xml version="1.0" encoding="UTF-8" standalone="no"?>
<!DOCTYPE svg PUBLIC "-//W3C//DTD SVG 1.1//EN"
 "http://www.w3.org/Graphics/SVG/1.1/DTD/svg11.dtd">
<!-- Generated by graphviz version 2.43.0 (0)
 -->
<!-- Title: Himanta Pages: 1 -->
<svg width="278pt" height="44pt"
 viewBox="0.00 0.00 278.00 44.00" xmlns="http://www.w3.org/2000/svg" xmlns:xlink="http://www.w3.org/1999/xlink">
<g id="graph0" class="graph" transform="scale(1 1) rotate(0) translate(4 40)">
<title>Himanta</title>
<polygon fill="white" stroke="transparent" points="-4,4 -4,-40 274,-40 274,4 -4,4"/>
<!-- l -->
<g id="node1" class="node">
<title>l</title>
<ellipse fill="none" stroke="black" cx="27" cy="-18" rx="27" ry="18"/>
<text text-anchor="middle" x="27" y="-14.3" font-family="Times,serif" font-size="14.00">l</text>
</g>
<!-- k -->
<g id="node2" class="node">
<title>k</title>
<ellipse fill="none" stroke="black" cx="99" cy="-18" rx="27" ry="18"/>
<text text-anchor="middle" x="99" y="-14.3" font-family="Times,serif" font-size="14.00">k</text>
</g>
<!-- l&#45;&gt;k -->
<g id="edge1" class="edge">
<title>l&#45;&gt;k</title>
<path fill="none" stroke="black" d="M54,-18C56.61,-18 59.23,-18 61.84,-18"/>
<polygon fill="black" stroke="black" points="61.93,-21.5 71.93,-18 61.93,-14.5 61.93,-21.5"/>
</g>
<!-- d -->
<g id="node3" class="node">
<title>d</title>
<ellipse fill="none" stroke="black" cx="171" cy="-18" rx="27" ry="18"/>
<text text-anchor="middle" x="171" y="-14.3" font-family="Times,serif" font-size="14.00">d</text>
</g>
<!-- k&#45;&gt;d -->
<g id="edge2" class="edge">
<title>k&#45;&gt;d</title>
<path fill="none" stroke="black" d="M126,-18C128.61,-18 131.23,-18 133.84,-18"/>
<polygon fill="black" stroke="black" points="133.93,-21.5 143.93,-18 133.93,-14.5 133.93,-21.5"/>
</g>
<!-- c -->
<g id="node4" class="node">
<title>c</title>
<ellipse fill="none" stroke="black" cx="243" cy="-18" rx="27" ry="18"/>
<text text-anchor="middle" x="243" y="-14.3" font-family="Times,serif" font-size="14.00">c</text>
</g>
<!-- d&#45;&gt;c -->
<g id="edge3" class="edge">
<title>d&#45;&gt;c</title>
<path fill="none" stroke="black" d="M198,-18C200.61,-18 203.23,-18 205.84,-18"/>
<polygon fill="black" stroke="black" points="205.93,-21.5 215.93,-18 205.93,-14.5 205.93,-21.5"/>
</g>
</g>
</svg>
